<?xml version="1.0" encoding="UTF-8" standalone="no"?>
<!-- Created with matplotlib (https://matplotlib.org/) -->

<svg
   height="288pt"
   version="1.1"
   viewBox="0 0 432 288"
   width="432pt"
   id="svg1037"
   sodipodi:docname="myimage2final.svg"
   inkscape:version="1.1.1 (3bf5ae0d25, 2021-09-20)"
   xmlns:inkscape="http://www.inkscape.org/namespaces/inkscape"
   xmlns:sodipodi="http://sodipodi.sourceforge.net/DTD/sodipodi-0.dtd"
   xmlns:xlink="http://www.w3.org/1999/xlink"
   xmlns="http://www.w3.org/2000/svg"
   xmlns:svg="http://www.w3.org/2000/svg">
  <sodipodi:namedview
     id="namedview1039"
     pagecolor="#ffffff"
     bordercolor="#666666"
     borderopacity="1.0"
     inkscape:pageshadow="2"
     inkscape:pageopacity="0.0"
     inkscape:pagecheckerboard="0"
     inkscape:document-units="pt"
     showgrid="false"
     inkscape:zoom="1.8101934"
     inkscape:cx="247.21116"
     inkscape:cy="246.10631"
     inkscape:window-width="1920"
     inkscape:window-height="991"
     inkscape:window-x="-9"
     inkscape:window-y="-9"
     inkscape:window-maximized="1"
     inkscape:current-layer="figure_1" />
  <defs
     id="defs527">
    <style
       type="text/css"
       id="style525">
*{stroke-linecap:butt;stroke-linejoin:round;}
  </style>
  </defs>
  <g
     id="figure_1">
    <g
       id="patch_1">
      <path
         d="M 0 288  L 432 288  L 432 0  L 0 0  z "
         style="fill:#ffffff;"
         id="path529" />
    </g>
    <g
       id="axes_1">
      <g
         id="patch_2">
        <path
           d="M 56.9 247.2  L 375.1 247.2  L 375.1 28.8  L 56.9 28.8  z "
           style="fill:#ffffff;"
           id="path532" />
      </g>
      <g
         id="patch_3">
        <path
           clip-path="url(#pe13f15c325)"
           d="M 71.363636 2103.6  L 88.379679 2103.6  L 88.379679 136.2528  L 71.363636 136.2528  z "
           style="fill:#1f77b4;"
           id="path535" />
      </g>
      <g
         id="patch_4">
        <path
           clip-path="url(#pe13f15c325)"
           d="M 113.903743 2103.6  L 130.919786 2103.6  L 130.919786 115.2864  L 113.903743 115.2864  z "
           style="fill:#1f77b4;"
           id="path538" />
      </g>
      <g
         id="patch_5">
        <path
           clip-path="url(#pe13f15c325)"
           d="M 156.44385 2103.6  L 173.459893 2103.6  L 173.459893 77.5032  L 156.44385 77.5032  z "
           style="fill:#1f77b4;"
           id="path541" />
      </g>
      <g
         id="patch_6">
        <path
           clip-path="url(#pe13f15c325)"
           d="M 198.983957 2103.6  L 216 2103.6  L 216 86.4576  L 198.983957 86.4576  z "
           style="fill:#1f77b4;"
           id="path544" />
      </g>
      <g
         id="patch_7">
        <path
           clip-path="url(#pe13f15c325)"
           d="M 241.524064 2103.6  L 258.540107 2103.6  L 258.540107 167.9208  L 241.524064 167.9208  z "
           style="fill:#1f77b4;"
           id="path547" />
      </g>
      <g
         id="patch_8">
        <path
           clip-path="url(#pe13f15c325)"
           d="M 284.064171 2103.6  L 301.080214 2103.6  L 301.080214 74.0088  L 284.064171 74.0088  z "
           style="fill:#1f77b4;"
           id="path550" />
      </g>
      <g
         id="patch_9">
        <path
           clip-path="url(#pe13f15c325)"
           d="M 326.604278 2103.6  L 343.620321 2103.6  L 343.620321 118.5624  L 326.604278 118.5624  z "
           style="fill:#1f77b4;"
           id="path553" />
      </g>
      <g
         id="patch_10">
        <path
           clip-path="url(#pe13f15c325)"
           d="M 88.379679 2103.6  L 105.395722 2103.6  L 105.395722 109.3896  L 88.379679 109.3896  z "
           style="fill:#ff7f0e;"
           id="path556" />
      </g>
      <g
         id="patch_11">
        <path
           clip-path="url(#pe13f15c325)"
           d="M 130.919786 2103.6  L 147.935829 2103.6  L 147.935829 139.5288  L 130.919786 139.5288  z "
           style="fill:#ff7f0e;"
           id="path559" />
      </g>
      <g
         id="patch_12">
        <path
           clip-path="url(#pe13f15c325)"
           d="M 173.459893 2103.6  L 190.475936 2103.6  L 190.475936 71.6064  L 173.459893 71.6064  z "
           style="fill:#ff7f0e;"
           id="path562" />
      </g>
      <g
         id="patch_13">
        <path
           clip-path="url(#pe13f15c325)"
           d="M 216 2103.6  L 233.016043 2103.6  L 233.016043 119.8728  L 216 119.8728  z "
           style="fill:#ff7f0e;"
           id="path565" />
      </g>
      <g
         id="patch_14">
        <path
           clip-path="url(#pe13f15c325)"
           d="M 258.540107 2103.6  L 275.55615 2103.6  L 275.55615 58.7208  L 258.540107 58.7208  z "
           style="fill:#ff7f0e;"
           id="path568" />
      </g>
      <g
         id="patch_15">
        <path
           clip-path="url(#pe13f15c325)"
           d="M 301.080214 2103.6  L 318.096257 2103.6  L 318.096257 72.0432  L 301.080214 72.0432  z "
           style="fill:#ff7f0e;"
           id="path571" />
      </g>
      <g
         id="patch_16">
        <path
           clip-path="url(#pe13f15c325)"
           d="M 343.620321 2103.6  L 360.636364 2103.6  L 360.636364 102.8376  L 343.620321 102.8376  z "
           style="fill:#ff7f0e;"
           id="path574" />
      </g>
      <g
         id="matplotlib.axis_1">
        <g
           id="xtick_1">
          <g
             id="line2d_1">
            <defs
               id="defs578">
              <path
                 d="M 0 0  L 0 3.5  "
                 id="mf029eedee9"
                 style="stroke:#000000;stroke-width:0.8;" />
            </defs>
            <g
               id="g582">
              <use
                 style="stroke:#000000;stroke-width:0.8;"
                 x="79.871658"
                 xlink:href="#mf029eedee9"
                 y="247.2"
                 id="use580" />
            </g>
          </g>
          <g
             id="text_1">
            <!-- 0 -->
            <defs
               id="defs586">
              <path
                 d="M 31.78125 66.40625  Q 24.171875 66.40625 20.328125 58.90625  Q 16.5 51.421875 16.5 36.375  Q 16.5 21.390625 20.328125 13.890625  Q 24.171875 6.390625 31.78125 6.390625  Q 39.453125 6.390625 43.28125 13.890625  Q 47.125 21.390625 47.125 36.375  Q 47.125 51.421875 43.28125 58.90625  Q 39.453125 66.40625 31.78125 66.40625  z M 31.78125 74.21875  Q 44.046875 74.21875 50.515625 64.515625  Q 56.984375 54.828125 56.984375 36.375  Q 56.984375 17.96875 50.515625 8.265625  Q 44.046875 -1.421875 31.78125 -1.421875  Q 19.53125 -1.421875 13.0625 8.265625  Q 6.59375 17.96875 6.59375 36.375  Q 6.59375 54.828125 13.0625 64.515625  Q 19.53125 74.21875 31.78125 74.21875  z "
                 id="DejaVuSans-48" />
            </defs>
            <g
               transform="translate(77.326658 260.27875)scale(0.08 -0.08)"
               id="g590">
              <use
                 xlink:href="#DejaVuSans-48"
                 id="use588" />
            </g>
          </g>
        </g>
        <g
           id="xtick_2">
          <g
             id="line2d_2">
            <g
               id="g596">
              <use
                 style="stroke:#000000;stroke-width:0.8;"
                 x="122.411765"
                 xlink:href="#mf029eedee9"
                 y="247.2"
                 id="use594" />
            </g>
          </g>
          <g
             id="text_2">
            <!-- 1 -->
            <defs
               id="defs600">
              <path
                 d="M 12.40625 8.296875  L 28.515625 8.296875  L 28.515625 63.921875  L 10.984375 60.40625  L 10.984375 69.390625  L 28.421875 72.90625  L 38.28125 72.90625  L 38.28125 8.296875  L 54.390625 8.296875  L 54.390625 0  L 12.40625 0  z "
                 id="DejaVuSans-49" />
            </defs>
            <g
               transform="translate(119.866765 260.27875)scale(0.08 -0.08)"
               id="g604">
              <use
                 xlink:href="#DejaVuSans-49"
                 id="use602" />
            </g>
          </g>
        </g>
        <g
           id="xtick_3">
          <g
             id="line2d_3">
            <g
               id="g610">
              <use
                 style="stroke:#000000;stroke-width:0.8;"
                 x="164.951872"
                 xlink:href="#mf029eedee9"
                 y="247.2"
                 id="use608" />
            </g>
          </g>
          <g
             id="text_3">
            <!-- 2 -->
            <defs
               id="defs614">
              <path
                 d="M 19.1875 8.296875  L 53.609375 8.296875  L 53.609375 0  L 7.328125 0  L 7.328125 8.296875  Q 12.9375 14.109375 22.625 23.890625  Q 32.328125 33.6875 34.8125 36.53125  Q 39.546875 41.84375 41.421875 45.53125  Q 43.3125 49.21875 43.3125 52.78125  Q 43.3125 58.59375 39.234375 62.25  Q 35.15625 65.921875 28.609375 65.921875  Q 23.96875 65.921875 18.8125 64.3125  Q 13.671875 62.703125 7.8125 59.421875  L 7.8125 69.390625  Q 13.765625 71.78125 18.9375 73  Q 24.125 74.21875 28.421875 74.21875  Q 39.75 74.21875 46.484375 68.546875  Q 53.21875 62.890625 53.21875 53.421875  Q 53.21875 48.921875 51.53125 44.890625  Q 49.859375 40.875 45.40625 35.40625  Q 44.1875 33.984375 37.640625 27.21875  Q 31.109375 20.453125 19.1875 8.296875  z "
                 id="DejaVuSans-50" />
            </defs>
            <g
               transform="translate(162.406872 260.27875)scale(0.08 -0.08)"
               id="g618">
              <use
                 xlink:href="#DejaVuSans-50"
                 id="use616" />
            </g>
          </g>
        </g>
        <g
           id="xtick_4">
          <g
             id="line2d_4">
            <g
               id="g624">
              <use
                 style="stroke:#000000;stroke-width:0.8;"
                 x="207.491979"
                 xlink:href="#mf029eedee9"
                 y="247.2"
                 id="use622" />
            </g>
          </g>
          <g
             id="text_4">
            <!-- 3 -->
            <defs
               id="defs628">
              <path
                 d="M 40.578125 39.3125  Q 47.65625 37.796875 51.625 33  Q 55.609375 28.21875 55.609375 21.1875  Q 55.609375 10.40625 48.1875 4.484375  Q 40.765625 -1.421875 27.09375 -1.421875  Q 22.515625 -1.421875 17.65625 -0.515625  Q 12.796875 0.390625 7.625 2.203125  L 7.625 11.71875  Q 11.71875 9.328125 16.59375 8.109375  Q 21.484375 6.890625 26.8125 6.890625  Q 36.078125 6.890625 40.9375 10.546875  Q 45.796875 14.203125 45.796875 21.1875  Q 45.796875 27.640625 41.28125 31.265625  Q 36.765625 34.90625 28.71875 34.90625  L 20.21875 34.90625  L 20.21875 43.015625  L 29.109375 43.015625  Q 36.375 43.015625 40.234375 45.921875  Q 44.09375 48.828125 44.09375 54.296875  Q 44.09375 59.90625 40.109375 62.90625  Q 36.140625 65.921875 28.71875 65.921875  Q 24.65625 65.921875 20.015625 65.03125  Q 15.375 64.15625 9.8125 62.3125  L 9.8125 71.09375  Q 15.4375 72.65625 20.34375 73.4375  Q 25.25 74.21875 29.59375 74.21875  Q 40.828125 74.21875 47.359375 69.109375  Q 53.90625 64.015625 53.90625 55.328125  Q 53.90625 49.265625 50.4375 45.09375  Q 46.96875 40.921875 40.578125 39.3125  z "
                 id="DejaVuSans-51" />
            </defs>
            <g
               transform="translate(204.946979 260.27875)scale(0.08 -0.08)"
               id="g632">
              <use
                 xlink:href="#DejaVuSans-51"
                 id="use630" />
            </g>
          </g>
        </g>
        <g
           id="xtick_5">
          <g
             id="line2d_5">
            <g
               id="g638">
              <use
                 style="stroke:#000000;stroke-width:0.8;"
                 x="250.032086"
                 xlink:href="#mf029eedee9"
                 y="247.2"
                 id="use636" />
            </g>
          </g>
          <g
             id="text_5">
            <!-- 4 -->
            <defs
               id="defs642">
              <path
                 d="M 37.796875 64.3125  L 12.890625 25.390625  L 37.796875 25.390625  z M 35.203125 72.90625  L 47.609375 72.90625  L 47.609375 25.390625  L 58.015625 25.390625  L 58.015625 17.1875  L 47.609375 17.1875  L 47.609375 0  L 37.796875 0  L 37.796875 17.1875  L 4.890625 17.1875  L 4.890625 26.703125  z "
                 id="DejaVuSans-52" />
            </defs>
            <g
               transform="translate(247.487086 260.27875)scale(0.08 -0.08)"
               id="g646">
              <use
                 xlink:href="#DejaVuSans-52"
                 id="use644" />
            </g>
          </g>
        </g>
        <g
           id="xtick_6">
          <g
             id="line2d_6">
            <g
               id="g652">
              <use
                 style="stroke:#000000;stroke-width:0.8;"
                 x="292.572193"
                 xlink:href="#mf029eedee9"
                 y="247.2"
                 id="use650" />
            </g>
          </g>
          <g
             id="text_6">
            <!-- 5 -->
            <defs
               id="defs656">
              <path
                 d="M 10.796875 72.90625  L 49.515625 72.90625  L 49.515625 64.59375  L 19.828125 64.59375  L 19.828125 46.734375  Q 21.96875 47.46875 24.109375 47.828125  Q 26.265625 48.1875 28.421875 48.1875  Q 40.625 48.1875 47.75 41.5  Q 54.890625 34.8125 54.890625 23.390625  Q 54.890625 11.625 47.5625 5.09375  Q 40.234375 -1.421875 26.90625 -1.421875  Q 22.3125 -1.421875 17.546875 -0.640625  Q 12.796875 0.140625 7.71875 1.703125  L 7.71875 11.625  Q 12.109375 9.234375 16.796875 8.0625  Q 21.484375 6.890625 26.703125 6.890625  Q 35.15625 6.890625 40.078125 11.328125  Q 45.015625 15.765625 45.015625 23.390625  Q 45.015625 31 40.078125 35.4375  Q 35.15625 39.890625 26.703125 39.890625  Q 22.75 39.890625 18.8125 39.015625  Q 14.890625 38.140625 10.796875 36.28125  z "
                 id="DejaVuSans-53" />
            </defs>
            <g
               transform="translate(290.027193 260.27875)scale(0.08 -0.08)"
               id="g660">
              <use
                 xlink:href="#DejaVuSans-53"
                 id="use658" />
            </g>
          </g>
        </g>
        <g
           id="xtick_7">
          <g
             id="line2d_7">
            <g
               id="g666">
              <use
                 style="stroke:#000000;stroke-width:0.8;"
                 x="335.112299"
                 xlink:href="#mf029eedee9"
                 y="247.2"
                 id="use664" />
            </g>
          </g>
          <g
             id="text_7">
            <!-- 6 -->
            <defs
               id="defs670">
              <path
                 d="M 33.015625 40.375  Q 26.375 40.375 22.484375 35.828125  Q 18.609375 31.296875 18.609375 23.390625  Q 18.609375 15.53125 22.484375 10.953125  Q 26.375 6.390625 33.015625 6.390625  Q 39.65625 6.390625 43.53125 10.953125  Q 47.40625 15.53125 47.40625 23.390625  Q 47.40625 31.296875 43.53125 35.828125  Q 39.65625 40.375 33.015625 40.375  z M 52.59375 71.296875  L 52.59375 62.3125  Q 48.875 64.0625 45.09375 64.984375  Q 41.3125 65.921875 37.59375 65.921875  Q 27.828125 65.921875 22.671875 59.328125  Q 17.53125 52.734375 16.796875 39.40625  Q 19.671875 43.65625 24.015625 45.921875  Q 28.375 48.1875 33.59375 48.1875  Q 44.578125 48.1875 50.953125 41.515625  Q 57.328125 34.859375 57.328125 23.390625  Q 57.328125 12.15625 50.6875 5.359375  Q 44.046875 -1.421875 33.015625 -1.421875  Q 20.359375 -1.421875 13.671875 8.265625  Q 6.984375 17.96875 6.984375 36.375  Q 6.984375 53.65625 15.1875 63.9375  Q 23.390625 74.21875 37.203125 74.21875  Q 40.921875 74.21875 44.703125 73.484375  Q 48.484375 72.75 52.59375 71.296875  z "
                 id="DejaVuSans-54" />
            </defs>
            <g
               transform="translate(332.567299 260.27875)scale(0.08 -0.08)"
               id="g674">
              <use
                 xlink:href="#DejaVuSans-54"
                 id="use672" />
            </g>
          </g>
        </g>
        <g
           id="text_8">
          <!-- Classifier type -->
          <defs
             id="defs690">
            <path
               d="M 64.40625 67.28125  L 64.40625 56.890625  Q 59.421875 61.53125 53.78125 63.8125  Q 48.140625 66.109375 41.796875 66.109375  Q 29.296875 66.109375 22.65625 58.46875  Q 16.015625 50.828125 16.015625 36.375  Q 16.015625 21.96875 22.65625 14.328125  Q 29.296875 6.6875 41.796875 6.6875  Q 48.140625 6.6875 53.78125 8.984375  Q 59.421875 11.28125 64.40625 15.921875  L 64.40625 5.609375  Q 59.234375 2.09375 53.4375 0.328125  Q 47.65625 -1.421875 41.21875 -1.421875  Q 24.65625 -1.421875 15.125 8.703125  Q 5.609375 18.84375 5.609375 36.375  Q 5.609375 53.953125 15.125 64.078125  Q 24.65625 74.21875 41.21875 74.21875  Q 47.75 74.21875 53.53125 72.484375  Q 59.328125 70.75 64.40625 67.28125  z "
               id="DejaVuSans-67" />
            <path
               d="M 9.421875 75.984375  L 18.40625 75.984375  L 18.40625 0  L 9.421875 0  z "
               id="DejaVuSans-108" />
            <path
               d="M 34.28125 27.484375  Q 23.390625 27.484375 19.1875 25  Q 14.984375 22.515625 14.984375 16.5  Q 14.984375 11.71875 18.140625 8.90625  Q 21.296875 6.109375 26.703125 6.109375  Q 34.1875 6.109375 38.703125 11.40625  Q 43.21875 16.703125 43.21875 25.484375  L 43.21875 27.484375  z M 52.203125 31.203125  L 52.203125 0  L 43.21875 0  L 43.21875 8.296875  Q 40.140625 3.328125 35.546875 0.953125  Q 30.953125 -1.421875 24.3125 -1.421875  Q 15.921875 -1.421875 10.953125 3.296875  Q 6 8.015625 6 15.921875  Q 6 25.140625 12.171875 29.828125  Q 18.359375 34.515625 30.609375 34.515625  L 43.21875 34.515625  L 43.21875 35.40625  Q 43.21875 41.609375 39.140625 45  Q 35.0625 48.390625 27.6875 48.390625  Q 23 48.390625 18.546875 47.265625  Q 14.109375 46.140625 10.015625 43.890625  L 10.015625 52.203125  Q 14.9375 54.109375 19.578125 55.046875  Q 24.21875 56 28.609375 56  Q 40.484375 56 46.34375 49.84375  Q 52.203125 43.703125 52.203125 31.203125  z "
               id="DejaVuSans-97" />
            <path
               d="M 44.28125 53.078125  L 44.28125 44.578125  Q 40.484375 46.53125 36.375 47.5  Q 32.28125 48.484375 27.875 48.484375  Q 21.1875 48.484375 17.84375 46.4375  Q 14.5 44.390625 14.5 40.28125  Q 14.5 37.15625 16.890625 35.375  Q 19.28125 33.59375 26.515625 31.984375  L 29.59375 31.296875  Q 39.15625 29.25 43.1875 25.515625  Q 47.21875 21.78125 47.21875 15.09375  Q 47.21875 7.46875 41.1875 3.015625  Q 35.15625 -1.421875 24.609375 -1.421875  Q 20.21875 -1.421875 15.453125 -0.5625  Q 10.6875 0.296875 5.421875 2  L 5.421875 11.28125  Q 10.40625 8.6875 15.234375 7.390625  Q 20.0625 6.109375 24.8125 6.109375  Q 31.15625 6.109375 34.5625 8.28125  Q 37.984375 10.453125 37.984375 14.40625  Q 37.984375 18.0625 35.515625 20.015625  Q 33.0625 21.96875 24.703125 23.78125  L 21.578125 24.515625  Q 13.234375 26.265625 9.515625 29.90625  Q 5.8125 33.546875 5.8125 39.890625  Q 5.8125 47.609375 11.28125 51.796875  Q 16.75 56 26.8125 56  Q 31.78125 56 36.171875 55.265625  Q 40.578125 54.546875 44.28125 53.078125  z "
               id="DejaVuSans-115" />
            <path
               d="M 9.421875 54.6875  L 18.40625 54.6875  L 18.40625 0  L 9.421875 0  z M 9.421875 75.984375  L 18.40625 75.984375  L 18.40625 64.59375  L 9.421875 64.59375  z "
               id="DejaVuSans-105" />
            <path
               d="M 37.109375 75.984375  L 37.109375 68.5  L 28.515625 68.5  Q 23.6875 68.5 21.796875 66.546875  Q 19.921875 64.59375 19.921875 59.515625  L 19.921875 54.6875  L 34.71875 54.6875  L 34.71875 47.703125  L 19.921875 47.703125  L 19.921875 0  L 10.890625 0  L 10.890625 47.703125  L 2.296875 47.703125  L 2.296875 54.6875  L 10.890625 54.6875  L 10.890625 58.5  Q 10.890625 67.625 15.140625 71.796875  Q 19.390625 75.984375 28.609375 75.984375  z "
               id="DejaVuSans-102" />
            <path
               d="M 56.203125 29.59375  L 56.203125 25.203125  L 14.890625 25.203125  Q 15.484375 15.921875 20.484375 11.0625  Q 25.484375 6.203125 34.421875 6.203125  Q 39.59375 6.203125 44.453125 7.46875  Q 49.3125 8.734375 54.109375 11.28125  L 54.109375 2.78125  Q 49.265625 0.734375 44.1875 -0.34375  Q 39.109375 -1.421875 33.890625 -1.421875  Q 20.796875 -1.421875 13.15625 6.1875  Q 5.515625 13.8125 5.515625 26.8125  Q 5.515625 40.234375 12.765625 48.109375  Q 20.015625 56 32.328125 56  Q 43.359375 56 49.78125 48.890625  Q 56.203125 41.796875 56.203125 29.59375  z M 47.21875 32.234375  Q 47.125 39.59375 43.09375 43.984375  Q 39.0625 48.390625 32.421875 48.390625  Q 24.90625 48.390625 20.390625 44.140625  Q 15.875 39.890625 15.1875 32.171875  z "
               id="DejaVuSans-101" />
            <path
               d="M 41.109375 46.296875  Q 39.59375 47.171875 37.8125 47.578125  Q 36.03125 48 33.890625 48  Q 26.265625 48 22.1875 43.046875  Q 18.109375 38.09375 18.109375 28.8125  L 18.109375 0  L 9.078125 0  L 9.078125 54.6875  L 18.109375 54.6875  L 18.109375 46.1875  Q 20.953125 51.171875 25.484375 53.578125  Q 30.03125 56 36.53125 56  Q 37.453125 56 38.578125 55.875  Q 39.703125 55.765625 41.0625 55.515625  z "
               id="DejaVuSans-114" />
            <path
               id="DejaVuSans-32" />
            <path
               d="M 18.3125 70.21875  L 18.3125 54.6875  L 36.8125 54.6875  L 36.8125 47.703125  L 18.3125 47.703125  L 18.3125 18.015625  Q 18.3125 11.328125 20.140625 9.421875  Q 21.96875 7.515625 27.59375 7.515625  L 36.8125 7.515625  L 36.8125 0  L 27.59375 0  Q 17.1875 0 13.234375 3.875  Q 9.28125 7.765625 9.28125 18.015625  L 9.28125 47.703125  L 2.6875 47.703125  L 2.6875 54.6875  L 9.28125 54.6875  L 9.28125 70.21875  z "
               id="DejaVuSans-116" />
            <path
               d="M 32.171875 -5.078125  Q 28.375 -14.84375 24.75 -17.8125  Q 21.140625 -20.796875 15.09375 -20.796875  L 7.90625 -20.796875  L 7.90625 -13.28125  L 13.1875 -13.28125  Q 16.890625 -13.28125 18.9375 -11.515625  Q 21 -9.765625 23.484375 -3.21875  L 25.09375 0.875  L 2.984375 54.6875  L 12.5 54.6875  L 29.59375 11.921875  L 46.6875 54.6875  L 56.203125 54.6875  z "
               id="DejaVuSans-121" />
            <path
               d="M 18.109375 8.203125  L 18.109375 -20.796875  L 9.078125 -20.796875  L 9.078125 54.6875  L 18.109375 54.6875  L 18.109375 46.390625  Q 20.953125 51.265625 25.265625 53.625  Q 29.59375 56 35.59375 56  Q 45.5625 56 51.78125 48.09375  Q 58.015625 40.1875 58.015625 27.296875  Q 58.015625 14.40625 51.78125 6.484375  Q 45.5625 -1.421875 35.59375 -1.421875  Q 29.59375 -1.421875 25.265625 0.953125  Q 20.953125 3.328125 18.109375 8.203125  z M 48.6875 27.296875  Q 48.6875 37.203125 44.609375 42.84375  Q 40.53125 48.484375 33.40625 48.484375  Q 26.265625 48.484375 22.1875 42.84375  Q 18.109375 37.203125 18.109375 27.296875  Q 18.109375 17.390625 22.1875 11.75  Q 26.265625 6.109375 33.40625 6.109375  Q 40.53125 6.109375 44.609375 11.75  Q 48.6875 17.390625 48.6875 27.296875  z "
               id="DejaVuSans-112" />
          </defs>
          <g
             transform="translate(180.416406 273.540938)scale(0.1 -0.1)"
             id="g722">
            <use
               xlink:href="#DejaVuSans-67"
               id="use692" />
            <use
               x="69.824219"
               xlink:href="#DejaVuSans-108"
               id="use694" />
            <use
               x="97.607422"
               xlink:href="#DejaVuSans-97"
               id="use696" />
            <use
               x="158.886719"
               xlink:href="#DejaVuSans-115"
               id="use698" />
            <use
               x="210.986328"
               xlink:href="#DejaVuSans-115"
               id="use700" />
            <use
               x="263.085938"
               xlink:href="#DejaVuSans-105"
               id="use702" />
            <use
               x="290.869141"
               xlink:href="#DejaVuSans-102"
               id="use704" />
            <use
               x="326.074219"
               xlink:href="#DejaVuSans-105"
               id="use706" />
            <use
               x="353.857422"
               xlink:href="#DejaVuSans-101"
               id="use708" />
            <use
               x="415.380859"
               xlink:href="#DejaVuSans-114"
               id="use710" />
            <use
               x="456.494141"
               xlink:href="#DejaVuSans-32"
               id="use712" />
            <use
               x="488.28125"
               xlink:href="#DejaVuSans-116"
               id="use714" />
            <use
               x="527.490234"
               xlink:href="#DejaVuSans-121"
               id="use716" />
            <use
               x="586.669922"
               xlink:href="#DejaVuSans-112"
               id="use718" />
            <use
               x="650.146484"
               xlink:href="#DejaVuSans-101"
               id="use720" />
          </g>
        </g>
      </g>
      <g
         id="matplotlib.axis_2">
        <g
           id="ytick_1">
          <g
             id="line2d_8">
            <defs
               id="defs727">
              <path
                 d="M 0 0  L -3.5 0  "
                 id="m1b3238311a"
                 style="stroke:#000000;stroke-width:0.8;" />
            </defs>
            <g
               id="g731">
              <use
                 style="stroke:#000000;stroke-width:0.8;"
                 x="56.9"
                 xlink:href="#m1b3238311a"
                 y="225.36"
                 id="use729" />
            </g>
          </g>
          <g
             id="text_9">
            <!-- 86 -->
            <defs
               id="defs735">
              <path
                 d="M 31.78125 34.625  Q 24.75 34.625 20.71875 30.859375  Q 16.703125 27.09375 16.703125 20.515625  Q 16.703125 13.921875 20.71875 10.15625  Q 24.75 6.390625 31.78125 6.390625  Q 38.8125 6.390625 42.859375 10.171875  Q 46.921875 13.96875 46.921875 20.515625  Q 46.921875 27.09375 42.890625 30.859375  Q 38.875 34.625 31.78125 34.625  z M 21.921875 38.8125  Q 15.578125 40.375 12.03125 44.71875  Q 8.5 49.078125 8.5 55.328125  Q 8.5 64.0625 14.71875 69.140625  Q 20.953125 74.21875 31.78125 74.21875  Q 42.671875 74.21875 48.875 69.140625  Q 55.078125 64.0625 55.078125 55.328125  Q 55.078125 49.078125 51.53125 44.71875  Q 48 40.375 41.703125 38.8125  Q 48.828125 37.15625 52.796875 32.3125  Q 56.78125 27.484375 56.78125 20.515625  Q 56.78125 9.90625 50.3125 4.234375  Q 43.84375 -1.421875 31.78125 -1.421875  Q 19.734375 -1.421875 13.25 4.234375  Q 6.78125 9.90625 6.78125 20.515625  Q 6.78125 27.484375 10.78125 32.3125  Q 14.796875 37.15625 21.921875 38.8125  z M 18.3125 54.390625  Q 18.3125 48.734375 21.84375 45.5625  Q 25.390625 42.390625 31.78125 42.390625  Q 38.140625 42.390625 41.71875 45.5625  Q 45.3125 48.734375 45.3125 54.390625  Q 45.3125 60.0625 41.71875 63.234375  Q 38.140625 66.40625 31.78125 66.40625  Q 25.390625 66.40625 21.84375 63.234375  Q 18.3125 60.0625 18.3125 54.390625  z "
                 id="DejaVuSans-56" />
            </defs>
            <g
               transform="translate(39.72 228.399375)scale(0.08 -0.08)"
               id="g741">
              <use
                 xlink:href="#DejaVuSans-56"
                 id="use737" />
              <use
                 x="63.623047"
                 xlink:href="#DejaVuSans-54"
                 id="use739" />
            </g>
          </g>
        </g>
        <g
           id="ytick_2">
          <g
             id="line2d_9">
            <g
               id="g747">
              <use
                 style="stroke:#000000;stroke-width:0.8;"
                 x="56.9"
                 xlink:href="#m1b3238311a"
                 y="181.68"
                 id="use745" />
            </g>
          </g>
          <g
             id="text_10">
            <!-- 88 -->
            <g
               transform="translate(39.72 184.719375)scale(0.08 -0.08)"
               id="g754">
              <use
                 xlink:href="#DejaVuSans-56"
                 id="use750" />
              <use
                 x="63.623047"
                 xlink:href="#DejaVuSans-56"
                 id="use752" />
            </g>
          </g>
        </g>
        <g
           id="ytick_3">
          <g
             id="line2d_10">
            <g
               id="g760">
              <use
                 style="stroke:#000000;stroke-width:0.8;"
                 x="56.9"
                 xlink:href="#m1b3238311a"
                 y="138"
                 id="use758" />
            </g>
          </g>
          <g
             id="text_11">
            <!-- 90 -->
            <defs
               id="defs764">
              <path
                 d="M 10.984375 1.515625  L 10.984375 10.5  Q 14.703125 8.734375 18.5 7.8125  Q 22.3125 6.890625 25.984375 6.890625  Q 35.75 6.890625 40.890625 13.453125  Q 46.046875 20.015625 46.78125 33.40625  Q 43.953125 29.203125 39.59375 26.953125  Q 35.25 24.703125 29.984375 24.703125  Q 19.046875 24.703125 12.671875 31.3125  Q 6.296875 37.9375 6.296875 49.421875  Q 6.296875 60.640625 12.9375 67.421875  Q 19.578125 74.21875 30.609375 74.21875  Q 43.265625 74.21875 49.921875 64.515625  Q 56.59375 54.828125 56.59375 36.375  Q 56.59375 19.140625 48.40625 8.859375  Q 40.234375 -1.421875 26.421875 -1.421875  Q 22.703125 -1.421875 18.890625 -0.6875  Q 15.09375 0.046875 10.984375 1.515625  z M 30.609375 32.421875  Q 37.25 32.421875 41.125 36.953125  Q 45.015625 41.5 45.015625 49.421875  Q 45.015625 57.28125 41.125 61.84375  Q 37.25 66.40625 30.609375 66.40625  Q 23.96875 66.40625 20.09375 61.84375  Q 16.21875 57.28125 16.21875 49.421875  Q 16.21875 41.5 20.09375 36.953125  Q 23.96875 32.421875 30.609375 32.421875  z "
                 id="DejaVuSans-57" />
            </defs>
            <g
               transform="translate(39.72 141.039375)scale(0.08 -0.08)"
               id="g770">
              <use
                 xlink:href="#DejaVuSans-57"
                 id="use766" />
              <use
                 x="63.623047"
                 xlink:href="#DejaVuSans-48"
                 id="use768" />
            </g>
          </g>
        </g>
        <g
           id="ytick_4">
          <g
             id="line2d_11">
            <g
               id="g776">
              <use
                 style="stroke:#000000;stroke-width:0.8;"
                 x="56.9"
                 xlink:href="#m1b3238311a"
                 y="94.32"
                 id="use774" />
            </g>
          </g>
          <g
             id="text_12">
            <!-- 92 -->
            <g
               transform="translate(39.72 97.359375)scale(0.08 -0.08)"
               id="g783">
              <use
                 xlink:href="#DejaVuSans-57"
                 id="use779" />
              <use
                 x="63.623047"
                 xlink:href="#DejaVuSans-50"
                 id="use781" />
            </g>
          </g>
        </g>
        <g
           id="ytick_5">
          <g
             id="line2d_12">
            <g
               id="g789">
              <use
                 style="stroke:#000000;stroke-width:0.8;"
                 x="56.9"
                 xlink:href="#m1b3238311a"
                 y="50.64"
                 id="use787" />
            </g>
          </g>
          <g
             id="text_13">
            <!-- 94 -->
            <g
               transform="translate(39.72 53.679375)scale(0.08 -0.08)"
               id="g796">
              <use
                 xlink:href="#DejaVuSans-57"
                 id="use792" />
              <use
                 x="63.623047"
                 xlink:href="#DejaVuSans-52"
                 id="use794" />
            </g>
          </g>
        </g>
        <g
           id="text_14">
          <!-- Accuracy -->
          <defs
             id="defs803">
            <path
               d="M 34.1875 63.1875  L 20.796875 26.90625  L 47.609375 26.90625  z M 28.609375 72.90625  L 39.796875 72.90625  L 67.578125 0  L 57.328125 0  L 50.6875 18.703125  L 17.828125 18.703125  L 11.1875 0  L 0.78125 0  z "
               id="DejaVuSans-65" />
            <path
               d="M 48.78125 52.59375  L 48.78125 44.1875  Q 44.96875 46.296875 41.140625 47.34375  Q 37.3125 48.390625 33.40625 48.390625  Q 24.65625 48.390625 19.8125 42.84375  Q 14.984375 37.3125 14.984375 27.296875  Q 14.984375 17.28125 19.8125 11.734375  Q 24.65625 6.203125 33.40625 6.203125  Q 37.3125 6.203125 41.140625 7.25  Q 44.96875 8.296875 48.78125 10.40625  L 48.78125 2.09375  Q 45.015625 0.34375 40.984375 -0.53125  Q 36.96875 -1.421875 32.421875 -1.421875  Q 20.0625 -1.421875 12.78125 6.34375  Q 5.515625 14.109375 5.515625 27.296875  Q 5.515625 40.671875 12.859375 48.328125  Q 20.21875 56 33.015625 56  Q 37.15625 56 41.109375 55.140625  Q 45.0625 54.296875 48.78125 52.59375  z "
               id="DejaVuSans-99" />
            <path
               d="M 8.5 21.578125  L 8.5 54.6875  L 17.484375 54.6875  L 17.484375 21.921875  Q 17.484375 14.15625 20.5 10.265625  Q 23.53125 6.390625 29.59375 6.390625  Q 36.859375 6.390625 41.078125 11.03125  Q 45.3125 15.671875 45.3125 23.6875  L 45.3125 54.6875  L 54.296875 54.6875  L 54.296875 0  L 45.3125 0  L 45.3125 8.40625  Q 42.046875 3.421875 37.71875 1  Q 33.40625 -1.421875 27.6875 -1.421875  Q 18.265625 -1.421875 13.375 4.4375  Q 8.5 10.296875 8.5 21.578125  z M 31.109375 56  z "
               id="DejaVuSans-117" />
          </defs>
          <g
             transform="translate(33.640312 160.828125)rotate(-90)scale(0.1 -0.1)"
             id="g821">
            <use
               xlink:href="#DejaVuSans-65"
               id="use805" />
            <use
               x="66.658203"
               xlink:href="#DejaVuSans-99"
               id="use807" />
            <use
               x="121.638672"
               xlink:href="#DejaVuSans-99"
               id="use809" />
            <use
               x="176.619141"
               xlink:href="#DejaVuSans-117"
               id="use811" />
            <use
               x="239.998047"
               xlink:href="#DejaVuSans-114"
               id="use813" />
            <use
               x="281.111328"
               xlink:href="#DejaVuSans-97"
               id="use815" />
            <use
               x="342.390625"
               xlink:href="#DejaVuSans-99"
               id="use817" />
            <use
               x="397.371094"
               xlink:href="#DejaVuSans-121"
               id="use819" />
          </g>
        </g>
      </g>
      <g
         id="patch_17">
        <path
           d="M 56.9 247.2  L 56.9 28.8  "
           style="fill:none;stroke:#000000;stroke-linecap:square;stroke-linejoin:miter;stroke-width:0.8;"
           id="path825" />
      </g>
      <g
         id="patch_18">
        <path
           d="M 375.1 247.2  L 375.1 28.8  "
           style="fill:none;stroke:#000000;stroke-linecap:square;stroke-linejoin:miter;stroke-width:0.8;"
           id="path828" />
      </g>
      <g
         id="patch_19">
        <path
           d="M 56.9 247.2  L 375.1 247.2  "
           style="fill:none;stroke:#000000;stroke-linecap:square;stroke-linejoin:miter;stroke-width:0.8;"
           id="path831" />
      </g>
      <g
         id="patch_20">
        <path
           d="M 56.9 28.8  L 375.1 28.8  "
           style="fill:none;stroke:#000000;stroke-linecap:square;stroke-linejoin:miter;stroke-width:0.8;"
           id="path834" />
      </g>
      <g
         id="text_15">
        <!-- Accuracy for Feature Reduction techniques vs Classifiers -->
        <defs
           id="defs845">
          <path
             d="M 30.609375 48.390625  Q 23.390625 48.390625 19.1875 42.75  Q 14.984375 37.109375 14.984375 27.296875  Q 14.984375 17.484375 19.15625 11.84375  Q 23.34375 6.203125 30.609375 6.203125  Q 37.796875 6.203125 41.984375 11.859375  Q 46.1875 17.53125 46.1875 27.296875  Q 46.1875 37.015625 41.984375 42.703125  Q 37.796875 48.390625 30.609375 48.390625  z M 30.609375 56  Q 42.328125 56 49.015625 48.375  Q 55.71875 40.765625 55.71875 27.296875  Q 55.71875 13.875 49.015625 6.21875  Q 42.328125 -1.421875 30.609375 -1.421875  Q 18.84375 -1.421875 12.171875 6.21875  Q 5.515625 13.875 5.515625 27.296875  Q 5.515625 40.765625 12.171875 48.375  Q 18.84375 56 30.609375 56  z "
             id="DejaVuSans-111" />
          <path
             d="M 9.8125 72.90625  L 51.703125 72.90625  L 51.703125 64.59375  L 19.671875 64.59375  L 19.671875 43.109375  L 48.578125 43.109375  L 48.578125 34.8125  L 19.671875 34.8125  L 19.671875 0  L 9.8125 0  z "
             id="DejaVuSans-70" />
          <path
             d="M 44.390625 34.1875  Q 47.5625 33.109375 50.5625 29.59375  Q 53.5625 26.078125 56.59375 19.921875  L 66.609375 0  L 56 0  L 46.6875 18.703125  Q 43.0625 26.03125 39.671875 28.421875  Q 36.28125 30.8125 30.421875 30.8125  L 19.671875 30.8125  L 19.671875 0  L 9.8125 0  L 9.8125 72.90625  L 32.078125 72.90625  Q 44.578125 72.90625 50.734375 67.671875  Q 56.890625 62.453125 56.890625 51.90625  Q 56.890625 45.015625 53.6875 40.46875  Q 50.484375 35.9375 44.390625 34.1875  z M 19.671875 64.796875  L 19.671875 38.921875  L 32.078125 38.921875  Q 39.203125 38.921875 42.84375 42.21875  Q 46.484375 45.515625 46.484375 51.90625  Q 46.484375 58.296875 42.84375 61.546875  Q 39.203125 64.796875 32.078125 64.796875  z "
             id="DejaVuSans-82" />
          <path
             d="M 45.40625 46.390625  L 45.40625 75.984375  L 54.390625 75.984375  L 54.390625 0  L 45.40625 0  L 45.40625 8.203125  Q 42.578125 3.328125 38.25 0.953125  Q 33.9375 -1.421875 27.875 -1.421875  Q 17.96875 -1.421875 11.734375 6.484375  Q 5.515625 14.40625 5.515625 27.296875  Q 5.515625 40.1875 11.734375 48.09375  Q 17.96875 56 27.875 56  Q 33.9375 56 38.25 53.625  Q 42.578125 51.265625 45.40625 46.390625  z M 14.796875 27.296875  Q 14.796875 17.390625 18.875 11.75  Q 22.953125 6.109375 30.078125 6.109375  Q 37.203125 6.109375 41.296875 11.75  Q 45.40625 17.390625 45.40625 27.296875  Q 45.40625 37.203125 41.296875 42.84375  Q 37.203125 48.484375 30.078125 48.484375  Q 22.953125 48.484375 18.875 42.84375  Q 14.796875 37.203125 14.796875 27.296875  z "
             id="DejaVuSans-100" />
          <path
             d="M 54.890625 33.015625  L 54.890625 0  L 45.90625 0  L 45.90625 32.71875  Q 45.90625 40.484375 42.875 44.328125  Q 39.84375 48.1875 33.796875 48.1875  Q 26.515625 48.1875 22.3125 43.546875  Q 18.109375 38.921875 18.109375 30.90625  L 18.109375 0  L 9.078125 0  L 9.078125 54.6875  L 18.109375 54.6875  L 18.109375 46.1875  Q 21.34375 51.125 25.703125 53.5625  Q 30.078125 56 35.796875 56  Q 45.21875 56 50.046875 50.171875  Q 54.890625 44.34375 54.890625 33.015625  z "
             id="DejaVuSans-110" />
          <path
             d="M 54.890625 33.015625  L 54.890625 0  L 45.90625 0  L 45.90625 32.71875  Q 45.90625 40.484375 42.875 44.328125  Q 39.84375 48.1875 33.796875 48.1875  Q 26.515625 48.1875 22.3125 43.546875  Q 18.109375 38.921875 18.109375 30.90625  L 18.109375 0  L 9.078125 0  L 9.078125 75.984375  L 18.109375 75.984375  L 18.109375 46.1875  Q 21.34375 51.125 25.703125 53.5625  Q 30.078125 56 35.796875 56  Q 45.21875 56 50.046875 50.171875  Q 54.890625 44.34375 54.890625 33.015625  z "
             id="DejaVuSans-104" />
          <path
             d="M 14.796875 27.296875  Q 14.796875 17.390625 18.875 11.75  Q 22.953125 6.109375 30.078125 6.109375  Q 37.203125 6.109375 41.296875 11.75  Q 45.40625 17.390625 45.40625 27.296875  Q 45.40625 37.203125 41.296875 42.84375  Q 37.203125 48.484375 30.078125 48.484375  Q 22.953125 48.484375 18.875 42.84375  Q 14.796875 37.203125 14.796875 27.296875  z M 45.40625 8.203125  Q 42.578125 3.328125 38.25 0.953125  Q 33.9375 -1.421875 27.875 -1.421875  Q 17.96875 -1.421875 11.734375 6.484375  Q 5.515625 14.40625 5.515625 27.296875  Q 5.515625 40.1875 11.734375 48.09375  Q 17.96875 56 27.875 56  Q 33.9375 56 38.25 53.625  Q 42.578125 51.265625 45.40625 46.390625  L 45.40625 54.6875  L 54.390625 54.6875  L 54.390625 -20.796875  L 45.40625 -20.796875  z "
             id="DejaVuSans-113" />
          <path
             d="M 2.984375 54.6875  L 12.5 54.6875  L 29.59375 8.796875  L 46.6875 54.6875  L 56.203125 54.6875  L 35.6875 0  L 23.484375 0  z "
             id="DejaVuSans-118" />
        </defs>
        <g
           transform="translate(3.521484 22.8)scale(0.15 -0.15)"
           id="g959">
          <use
             xlink:href="#DejaVuSans-65"
             id="use847" />
          <use
             x="66.658203"
             xlink:href="#DejaVuSans-99"
             id="use849" />
          <use
             x="121.638672"
             xlink:href="#DejaVuSans-99"
             id="use851" />
          <use
             x="176.619141"
             xlink:href="#DejaVuSans-117"
             id="use853" />
          <use
             x="239.998047"
             xlink:href="#DejaVuSans-114"
             id="use855" />
          <use
             x="281.111328"
             xlink:href="#DejaVuSans-97"
             id="use857" />
          <use
             x="342.390625"
             xlink:href="#DejaVuSans-99"
             id="use859" />
          <use
             x="397.371094"
             xlink:href="#DejaVuSans-121"
             id="use861" />
          <use
             x="456.550781"
             xlink:href="#DejaVuSans-32"
             id="use863" />
          <use
             x="488.337891"
             xlink:href="#DejaVuSans-102"
             id="use865" />
          <use
             x="523.542969"
             xlink:href="#DejaVuSans-111"
             id="use867" />
          <use
             x="584.724609"
             xlink:href="#DejaVuSans-114"
             id="use869" />
          <use
             x="625.837891"
             xlink:href="#DejaVuSans-32"
             id="use871" />
          <use
             x="657.625"
             xlink:href="#DejaVuSans-70"
             id="use873" />
          <use
             x="709.644531"
             xlink:href="#DejaVuSans-101"
             id="use875" />
          <use
             x="771.167969"
             xlink:href="#DejaVuSans-97"
             id="use877" />
          <use
             x="832.447266"
             xlink:href="#DejaVuSans-116"
             id="use879" />
          <use
             x="871.65625"
             xlink:href="#DejaVuSans-117"
             id="use881" />
          <use
             x="935.035156"
             xlink:href="#DejaVuSans-114"
             id="use883" />
          <use
             x="973.898438"
             xlink:href="#DejaVuSans-101"
             id="use885" />
          <use
             x="1035.421875"
             xlink:href="#DejaVuSans-32"
             id="use887" />
          <use
             x="1067.208984"
             xlink:href="#DejaVuSans-82"
             id="use889" />
          <use
             x="1132.191406"
             xlink:href="#DejaVuSans-101"
             id="use891" />
          <use
             x="1193.714844"
             xlink:href="#DejaVuSans-100"
             id="use893" />
          <use
             x="1257.191406"
             xlink:href="#DejaVuSans-117"
             id="use895" />
          <use
             x="1320.570312"
             xlink:href="#DejaVuSans-99"
             id="use897" />
          <use
             x="1375.550781"
             xlink:href="#DejaVuSans-116"
             id="use899" />
          <use
             x="1414.759766"
             xlink:href="#DejaVuSans-105"
             id="use901" />
          <use
             x="1442.542969"
             xlink:href="#DejaVuSans-111"
             id="use903" />
          <use
             x="1503.724609"
             xlink:href="#DejaVuSans-110"
             id="use905" />
          <use
             x="1567.103516"
             xlink:href="#DejaVuSans-32"
             id="use907" />
          <use
             x="1598.890625"
             xlink:href="#DejaVuSans-116"
             id="use909" />
          <use
             x="1638.099609"
             xlink:href="#DejaVuSans-101"
             id="use911" />
          <use
             x="1699.623047"
             xlink:href="#DejaVuSans-99"
             id="use913" />
          <use
             x="1754.603516"
             xlink:href="#DejaVuSans-104"
             id="use915" />
          <use
             x="1817.982422"
             xlink:href="#DejaVuSans-110"
             id="use917" />
          <use
             x="1881.361328"
             xlink:href="#DejaVuSans-105"
             id="use919" />
          <use
             x="1909.144531"
             xlink:href="#DejaVuSans-113"
             id="use921" />
          <use
             x="1972.621094"
             xlink:href="#DejaVuSans-117"
             id="use923" />
          <use
             x="2036"
             xlink:href="#DejaVuSans-101"
             id="use925" />
          <use
             x="2097.523438"
             xlink:href="#DejaVuSans-115"
             id="use927" />
          <use
             x="2149.623047"
             xlink:href="#DejaVuSans-32"
             id="use929" />
          <use
             x="2181.410156"
             xlink:href="#DejaVuSans-118"
             id="use931" />
          <use
             x="2240.589844"
             xlink:href="#DejaVuSans-115"
             id="use933" />
          <use
             x="2292.689453"
             xlink:href="#DejaVuSans-32"
             id="use935" />
          <use
             x="2324.476562"
             xlink:href="#DejaVuSans-67"
             id="use937" />
          <use
             x="2394.300781"
             xlink:href="#DejaVuSans-108"
             id="use939" />
          <use
             x="2422.083984"
             xlink:href="#DejaVuSans-97"
             id="use941" />
          <use
             x="2483.363281"
             xlink:href="#DejaVuSans-115"
             id="use943" />
          <use
             x="2535.462891"
             xlink:href="#DejaVuSans-115"
             id="use945" />
          <use
             x="2587.5625"
             xlink:href="#DejaVuSans-105"
             id="use947" />
          <use
             x="2615.345703"
             xlink:href="#DejaVuSans-102"
             id="use949" />
          <use
             x="2650.550781"
             xlink:href="#DejaVuSans-105"
             id="use951" />
          <use
             x="2678.333984"
             xlink:href="#DejaVuSans-101"
             id="use953" />
          <use
             x="2739.857422"
             xlink:href="#DejaVuSans-114"
             id="use955" />
          <use
             x="2780.970703"
             xlink:href="#DejaVuSans-115"
             id="use957" />
        </g>
      </g>
      <g
         id="legend_1">
        <g
           id="patch_21">
          <path
             d="M 63.9 66.15625  L 199.332812 66.15625  Q 201.332812 66.15625 201.332812 64.15625  L 201.332812 35.8  Q 201.332812 33.8 199.332812 33.8  L 63.9 33.8  Q 61.9 33.8 61.9 35.8  L 61.9 64.15625  Q 61.9 66.15625 63.9 66.15625  z "
             style="fill:#ffffff;opacity:0.8;stroke:#cccccc;stroke-linejoin:miter;"
             id="path962" />
        </g>
        <g
           id="patch_22">
          <path
             d="M 65.9 45.398437  L 85.9 45.398437  L 85.9 38.398437  L 65.9 38.398437  z "
             style="fill:#1f77b4;"
             id="path965" />
        </g>
        <g
           id="text_16">
          <!-- No feature reduction -->
          <defs
             id="defs969">
            <path
               d="M 9.8125 72.90625  L 23.09375 72.90625  L 55.421875 11.921875  L 55.421875 72.90625  L 64.984375 72.90625  L 64.984375 0  L 51.703125 0  L 19.390625 60.984375  L 19.390625 0  L 9.8125 0  z "
               id="DejaVuSans-78" />
          </defs>
          <g
             transform="translate(93.9 45.398437)scale(0.1 -0.1)"
             id="g1011">
            <use
               xlink:href="#DejaVuSans-78"
               id="use971" />
            <use
               x="74.804688"
               xlink:href="#DejaVuSans-111"
               id="use973" />
            <use
               x="135.986328"
               xlink:href="#DejaVuSans-32"
               id="use975" />
            <use
               x="167.773438"
               xlink:href="#DejaVuSans-102"
               id="use977" />
            <use
               x="202.978516"
               xlink:href="#DejaVuSans-101"
               id="use979" />
            <use
               x="264.501953"
               xlink:href="#DejaVuSans-97"
               id="use981" />
            <use
               x="325.78125"
               xlink:href="#DejaVuSans-116"
               id="use983" />
            <use
               x="364.990234"
               xlink:href="#DejaVuSans-117"
               id="use985" />
            <use
               x="428.369141"
               xlink:href="#DejaVuSans-114"
               id="use987" />
            <use
               x="467.232422"
               xlink:href="#DejaVuSans-101"
               id="use989" />
            <use
               x="528.755859"
               xlink:href="#DejaVuSans-32"
               id="use991" />
            <use
               x="560.542969"
               xlink:href="#DejaVuSans-114"
               id="use993" />
            <use
               x="599.40625"
               xlink:href="#DejaVuSans-101"
               id="use995" />
            <use
               x="660.929688"
               xlink:href="#DejaVuSans-100"
               id="use997" />
            <use
               x="724.40625"
               xlink:href="#DejaVuSans-117"
               id="use999" />
            <use
               x="787.785156"
               xlink:href="#DejaVuSans-99"
               id="use1001" />
            <use
               x="842.765625"
               xlink:href="#DejaVuSans-116"
               id="use1003" />
            <use
               x="881.974609"
               xlink:href="#DejaVuSans-105"
               id="use1005" />
            <use
               x="909.757812"
               xlink:href="#DejaVuSans-111"
               id="use1007" />
            <use
               x="970.939453"
               xlink:href="#DejaVuSans-110"
               id="use1009" />
          </g>
        </g>
        <g
           id="patch_23">
          <path
             d="M 65.9 60.076562  L 85.9 60.076562  L 85.9 53.076562  L 65.9 53.076562  z "
             style="fill:#ff7f0e;"
             id="path1014" />
        </g>
        <g
           id="text_17">
          <!-- PCA -->
          <defs
             id="defs1018">
            <path
               d="M 19.671875 64.796875  L 19.671875 37.40625  L 32.078125 37.40625  Q 38.96875 37.40625 42.71875 40.96875  Q 46.484375 44.53125 46.484375 51.125  Q 46.484375 57.671875 42.71875 61.234375  Q 38.96875 64.796875 32.078125 64.796875  z M 9.8125 72.90625  L 32.078125 72.90625  Q 44.34375 72.90625 50.609375 67.359375  Q 56.890625 61.8125 56.890625 51.125  Q 56.890625 40.328125 50.609375 34.8125  Q 44.34375 29.296875 32.078125 29.296875  L 19.671875 29.296875  L 19.671875 0  L 9.8125 0  z "
               id="DejaVuSans-80" />
          </defs>
          <g
             transform="translate(93.9 60.076562)scale(0.1 -0.1)"
             id="g1026">
            <use
               xlink:href="#DejaVuSans-80"
               id="use1020" />
            <use
               x="60.302734"
               xlink:href="#DejaVuSans-67"
               id="use1022" />
            <use
               x="130.126953"
               xlink:href="#DejaVuSans-65"
               id="use1024" />
          </g>
        </g>
      </g>
    </g>
    <rect
       style="opacity:1;fill:#ffffff;fill-opacity:1;fill-rule:evenodd;stroke:#ffffff;stroke-width:0.708661;stroke-opacity:1"
       id="rect52309"
       width="277.63718"
       height="9.008419"
       x="72.506065"
       y="253.77124" />
    <text
       xml:space="preserve"
       style="font-style:normal;font-weight:normal;font-size:10px;line-height:1.25;font-family:sans-serif;fill:#000000;fill-opacity:1;stroke:none;stroke-width:0.75"
       x="80.283478"
       y="259.73093"
       id="text58457"><tspan
         sodipodi:role="line"
         id="tspan58455"
         style="font-style:normal;font-variant:normal;font-weight:normal;font-stretch:normal;font-size:10px;font-family:'Times New Roman';-inkscape-font-specification:'Times New Roman, ';stroke-width:0.75"
         x="80.283478"
         y="259.73093">LR</tspan></text>
    <text
       xml:space="preserve"
       style="font-style:normal;font-weight:normal;font-size:10px;line-height:1.25;font-family:sans-serif;fill:#000000;fill-opacity:1;stroke:none;stroke-width:0.75"
       x="115.72604"
       y="260.34402"
       id="text77566"><tspan
         sodipodi:role="line"
         id="tspan77564"
         style="font-style:normal;font-variant:normal;font-weight:normal;font-stretch:normal;font-size:10px;font-family:'Times New Roman';-inkscape-font-specification:'Times New Roman, ';stroke-width:0.75"
         x="115.72604"
         y="260.34402">K-NN</tspan></text>
    <text
       xml:space="preserve"
       style="font-style:normal;font-weight:normal;font-size:10px;line-height:1.25;font-family:sans-serif;fill:#000000;fill-opacity:1;stroke:none;stroke-width:0.75"
       x="164.8963"
       y="259.69934"
       id="text86588"><tspan
         sodipodi:role="line"
         id="tspan86586"
         style="font-style:normal;font-variant:normal;font-weight:normal;font-stretch:normal;font-size:10px;font-family:'Times New Roman';-inkscape-font-specification:'Times New Roman, ';stroke-width:0.75"
         x="164.8963"
         y="259.69934">RF</tspan></text>
    <text
       xml:space="preserve"
       style="font-style:normal;font-weight:normal;font-size:10px;line-height:1.25;font-family:sans-serif;fill:#000000;fill-opacity:1;stroke:none;stroke-width:0.75"
       x="202.4174"
       y="259.97742"
       id="text90192"><tspan
         sodipodi:role="line"
         id="tspan90190"
         style="font-style:normal;font-variant:normal;font-weight:normal;font-stretch:normal;font-size:10px;font-family:'Times New Roman';-inkscape-font-specification:'Times New Roman, ';stroke-width:0.75"
         x="202.4174"
         y="259.97742">SVM</tspan></text>
    <text
       xml:space="preserve"
       style="font-style:normal;font-weight:normal;font-size:10px;line-height:1.25;font-family:sans-serif;fill:#000000;fill-opacity:1;stroke:none;stroke-width:0.75"
       x="239.1167"
       y="260.03958"
       id="text94750"><tspan
         sodipodi:role="line"
         id="tspan94748"
         style="font-style:normal;font-variant:normal;font-weight:normal;font-stretch:normal;font-size:10px;font-family:'Times New Roman';-inkscape-font-specification:'Times New Roman, ';stroke-width:0.75"
         x="239.1167"
         y="260.03958">AdaBoost</tspan></text>
    <text
       xml:space="preserve"
       style="font-style:normal;font-weight:normal;font-size:10px;line-height:1.25;font-family:sans-serif;fill:#000000;fill-opacity:1;stroke:none;stroke-width:0.75"
       x="286.22729"
       y="260.26889"
       id="text102476"><tspan
         sodipodi:role="line"
         id="tspan102474"
         style="font-style:normal;font-variant:normal;font-weight:normal;font-stretch:normal;font-size:10px;font-family:'Times New Roman';-inkscape-font-specification:'Times New Roman, ';stroke-width:0.75"
         x="286.22729"
         y="260.26889">GNB</tspan></text>
    <text
       xml:space="preserve"
       style="font-style:normal;font-weight:normal;font-size:10px;line-height:1.25;font-family:sans-serif;fill:#000000;fill-opacity:1;stroke:none;stroke-width:0.75"
       x="323.40042"
       y="260.15616"
       id="text108736"><tspan
         sodipodi:role="line"
         id="tspan108734"
         style="font-style:normal;font-variant:normal;font-weight:normal;font-stretch:normal;font-size:10px;font-family:'Times New Roman';-inkscape-font-specification:'Times New Roman, ';stroke-width:0.75"
         x="323.40042"
         y="260.15616">Ensemble</tspan></text>
  </g>
  <defs
     id="defs1035">
    <clipPath
       id="pe13f15c325">
      <rect
         height="218.4"
         width="318.2"
         x="56.9"
         y="28.8"
         id="rect1032" />
    </clipPath>
  </defs>
</svg>
